<svg width="62" height="48" viewBox="0 0 62 48" fill="none" xmlns="http://www.w3.org/2000/svg">
<g opacity="0.3">
<path d="M49.1794 16.3799C51.0592 16.1743 52.4164 14.4839 52.2108 12.6041C52.0053 10.7244 50.3148 9.36713 48.4351 9.57267C46.5553 9.77821 45.1981 11.4687 45.4036 13.3484C45.6092 15.2282 47.2996 16.5854 49.1794 16.3799Z" stroke="#EB996E" stroke-width="0.376003" stroke-linecap="round" stroke-linejoin="round"/>
<path d="M51.3774 14.3656C52.1433 12.9473 51.6145 11.1768 50.1962 10.4109C48.778 9.64502 47.0074 10.1739 46.2416 11.5921C45.4757 13.0103 46.0045 14.7809 47.4228 15.5468C48.841 16.3127 50.6116 15.7838 51.3774 14.3656Z" stroke="#EB996E" stroke-width="0.376003" stroke-linecap="round" stroke-linejoin="round"/>
<path d="M50.0503 13.5622C50.0503 12.5808 48.6582 12.5587 48.6582 12.149C48.6582 11.9336 48.7715 11.8682 49.0035 11.8682C49.2033 11.8682 49.3717 11.9548 49.5642 12.1279L50.0245 11.5985C49.812 11.3604 49.5251 11.2014 49.2106 11.1474V10.595H48.6039V11.163C48.0838 11.2753 47.7753 11.6464 47.7753 12.1923C47.7753 13.136 49.1683 13.1958 49.1683 13.6276C49.1683 13.8375 49.0596 13.9296 48.7899 13.9296C48.5634 13.9296 48.3369 13.843 48.0451 13.6276L47.6465 14.2536C47.9202 14.4798 48.2539 14.6212 48.6067 14.6606V15.2028H49.2116V14.6228C49.7722 14.4893 50.0503 14.0824 50.0503 13.5622Z" stroke="#EB996E" stroke-width="0.376003" stroke-linecap="round" stroke-linejoin="round"/>
</g>
<g opacity="0.3">
<path d="M50.8475 32.7283C51.7098 32.7283 52.4089 32.0292 52.4089 31.1669C52.4089 30.3045 51.7098 29.6054 50.8475 29.6054C49.9851 29.6054 49.2861 30.3045 49.2861 31.1669C49.2861 32.0292 49.9851 32.7283 50.8475 32.7283Z" stroke="#EB996E" stroke-width="0.376003" stroke-linecap="round" stroke-linejoin="round"/>
<path d="M51.7884 32.1084C52.3083 31.5885 52.3083 30.7456 51.7884 30.2257C51.2685 29.7058 50.4256 29.7058 49.9058 30.2257C49.3859 30.7456 49.3859 31.5885 49.9058 32.1084C50.4256 32.6283 51.2685 32.6283 51.7884 32.1084Z" stroke="#EB996E" stroke-width="0.376003" stroke-linecap="round" stroke-linejoin="round"/>
<path d="M51.4137 31.4339C51.4137 30.9864 50.7785 30.9735 50.7785 30.7894C50.7785 30.6909 50.83 30.6614 50.9359 30.6614C51.0335 30.6663 51.1254 30.7085 51.1928 30.7793L51.4017 30.5381C51.3052 30.4304 51.1757 30.3579 51.0335 30.3318V30.0805H50.7573V30.3392C50.6454 30.3554 50.5436 30.413 50.4722 30.5006C50.4008 30.5883 50.3648 30.6996 50.3715 30.8124C50.3715 31.2433 51.0068 31.2727 51.0068 31.467C51.0068 31.5637 50.9571 31.6051 50.8346 31.6051C50.7092 31.5982 50.5896 31.5496 50.4949 31.467L50.3108 31.7533C50.4357 31.8562 50.5881 31.9202 50.749 31.9375V32.1851H51.0252V31.9172C51.1378 31.898 51.2395 31.8382 51.3111 31.7492C51.3827 31.6601 51.4192 31.548 51.4137 31.4339Z" stroke="#EB996E" stroke-width="0.376003" stroke-linecap="round" stroke-linejoin="round"/>
</g>
<g opacity="0.3">
<path d="M22.7972 6.35593C24.1337 6.14209 25.0438 4.88528 24.83 3.54875C24.6161 2.21223 23.3593 1.30211 22.0228 1.51595C20.6863 1.72979 19.7761 2.9866 19.99 4.32313C20.2038 5.65965 21.4606 6.56976 22.7972 6.35593Z" stroke="#EB996E" stroke-width="0.376003" stroke-linecap="round" stroke-linejoin="round"/>
<path d="M24.174 5.05689C24.792 4.08268 24.5032 2.79193 23.529 2.17392C22.5548 1.55591 21.2641 1.84466 20.6461 2.81887C20.0281 3.79307 20.3168 5.08382 21.291 5.70183C22.2652 6.31984 23.556 6.03109 24.174 5.05689Z" stroke="#EB996E" stroke-width="0.376003" stroke-linecap="round" stroke-linejoin="round"/>
<path d="M23.298 4.35666C23.298 3.65421 22.3019 3.63856 22.3019 3.34395C22.3019 3.1902 22.3829 3.14325 22.5495 3.14325C22.7022 3.15017 22.8461 3.2162 22.9509 3.32738L23.2787 2.94899C23.1266 2.77828 22.9212 2.66406 22.6959 2.62492V2.23273H22.2632V2.64057C22.0906 2.66828 21.9344 2.75884 21.8246 2.89481C21.7148 3.03079 21.6592 3.20257 21.6685 3.37709C21.6685 4.05285 22.6646 4.0952 22.6646 4.40454C22.6646 4.5546 22.5882 4.62089 22.3949 4.62089C22.2328 4.62089 22.0699 4.55921 21.8618 4.40454L21.5764 4.85013C21.7718 5.01268 22.0106 5.11417 22.2632 5.14198V5.53141H22.6959V5.1162C22.8712 5.08388 23.0288 4.98909 23.1395 4.84943C23.2502 4.70976 23.3065 4.53469 23.298 4.35666Z" stroke="#EB996E" stroke-width="0.376003" stroke-linecap="round" stroke-linejoin="round"/>
</g>
<g opacity="0.3">
<path d="M3.24688 33.1393C4.09809 33.0011 4.67612 32.1991 4.53795 31.3479C4.39978 30.4967 3.59773 29.9186 2.74652 30.0568C1.89532 30.195 1.31729 30.997 1.45546 31.8482C1.59363 32.6994 2.39568 33.2775 3.24688 33.1393Z" stroke="#EB996E" stroke-width="0.376003" stroke-linecap="round" stroke-linejoin="round"/>
<path d="M4.32621 31.5987C4.32621 31.3354 4.24813 31.078 4.10185 30.859C3.95557 30.6401 3.74766 30.4695 3.5044 30.3687C3.26115 30.268 2.99348 30.2416 2.73524 30.293C2.477 30.3443 2.23979 30.4711 2.05361 30.6573C1.86743 30.8435 1.74064 31.0807 1.68928 31.3389C1.63791 31.5972 1.66427 31.8648 1.76503 32.1081C1.86579 32.3514 2.03642 32.5593 2.25535 32.7056C2.47427 32.8518 2.73166 32.9299 2.99495 32.9299C3.34803 32.9299 3.68664 32.7897 3.9363 32.54C4.18595 32.2903 4.32621 31.9517 4.32621 31.5987V31.5987Z" stroke="#EB996E" stroke-width="0.376003" stroke-linecap="round" stroke-linejoin="round"/>
<path d="M3.56118 31.8665C3.56118 31.4182 2.92686 31.4062 2.92686 31.2221C2.92686 31.1236 2.97841 31.0941 3.08429 31.0941C3.18161 31.0989 3.27332 31.1411 3.34023 31.212L3.54921 30.9707C3.45295 30.863 3.32326 30.7906 3.18096 30.7654V30.5132H2.90476V30.7728C2.79461 30.7902 2.69484 30.8478 2.62476 30.9346C2.55469 31.0213 2.5193 31.131 2.52545 31.2423C2.52545 31.6723 3.1607 31.7027 3.1607 31.8969C3.1607 31.989 3.11191 32.0341 2.98854 32.0341C2.86318 32.0275 2.74362 31.9792 2.64882 31.8969L2.46469 32.1823C2.58993 32.2847 2.74213 32.3487 2.90292 32.3664V32.6132H3.17911V32.3499C3.29073 32.3296 3.39112 32.2694 3.46146 32.1804C3.5318 32.0914 3.56726 31.9798 3.56118 31.8665V31.8665Z" stroke="#EB996E" stroke-width="0.376003" stroke-linecap="round" stroke-linejoin="round"/>
</g>
<g opacity="0.3">
<path d="M42.1435 40.1354C42.9963 40.0072 43.5837 39.212 43.4554 38.3592C43.3272 37.5065 42.532 36.9191 41.6792 37.0473C40.8265 37.1755 40.2391 37.9708 40.3673 38.8235C40.4955 39.6763 41.2908 40.2637 42.1435 40.1354Z" stroke="#EB996E" stroke-width="0.376003" stroke-linecap="round" stroke-linejoin="round"/>
<path d="M43.2411 38.5937C43.2407 38.3305 43.1624 38.0733 43.0159 37.8546C42.8694 37.6359 42.6613 37.4656 42.418 37.3651C42.1747 37.2646 41.9071 37.2385 41.649 37.2901C41.3909 37.3417 41.1539 37.4686 40.9679 37.6549C40.7819 37.8411 40.6553 38.0783 40.604 38.3365C40.5528 38.5947 40.5793 38.8623 40.6801 39.1054C40.7809 39.3486 40.9516 39.5564 41.1704 39.7026C41.3893 39.8488 41.6466 39.9268 41.9099 39.9268C42.0849 39.9269 42.2582 39.8925 42.4199 39.8256C42.5816 39.7586 42.7284 39.6604 42.8521 39.5365C42.9758 39.4127 43.0738 39.2657 43.1405 39.1039C43.2073 38.9421 43.2415 38.7687 43.2411 38.5937V38.5937Z" stroke="#EB996E" stroke-width="0.376003" stroke-linecap="round" stroke-linejoin="round"/>
<path d="M42.4761 38.8607C42.4761 38.4133 41.8417 38.4004 41.8417 38.2163C41.8417 38.1178 41.8933 38.0883 41.9992 38.0883C42.0965 38.0931 42.1882 38.1353 42.2551 38.2062L42.4641 37.9649C42.368 37.8568 42.2382 37.7842 42.0958 37.7587V37.5074H41.8196V37.767C41.7097 37.7844 41.61 37.8419 41.54 37.9284C41.4699 38.015 41.4344 38.1244 41.4403 38.2356C41.4403 38.6665 42.0756 38.6959 42.0756 38.8911C42.0756 38.9832 42.0268 39.0283 41.9034 39.0283C41.7781 39.0217 41.6585 38.9734 41.5637 38.8911L41.3796 39.1765C41.5048 39.2789 41.657 39.3429 41.8178 39.3607V39.6074H42.094V39.3432C42.2053 39.3228 42.3055 39.2626 42.3758 39.1738C42.4461 39.0851 42.4817 38.9738 42.4761 38.8607Z" stroke="#EB996E" stroke-width="0.376003" stroke-linecap="round" stroke-linejoin="round"/>
</g>
<g opacity="0.3">
<path d="M11.0286 15.4413C11.8909 15.4413 12.59 14.7422 12.59 13.8798C12.59 13.0175 11.8909 12.3184 11.0286 12.3184C10.1662 12.3184 9.46716 13.0175 9.46716 13.8798C9.46716 14.7422 10.1662 15.4413 11.0286 15.4413Z" stroke="#EB996E" stroke-width="0.376003" stroke-linecap="round" stroke-linejoin="round"/>
<path d="M12.2804 14.3317C12.5306 13.6404 12.1731 12.877 11.4817 12.6268C10.7904 12.3765 10.0271 12.7341 9.77685 13.4254C9.52659 14.1167 9.88415 14.8801 10.5755 15.1303C11.2668 15.3806 12.0301 15.023 12.2804 14.3317Z" stroke="#EB996E" stroke-width="0.376003" stroke-linecap="round" stroke-linejoin="round"/>
<path d="M11.5957 14.1487C11.5957 13.7003 10.9605 13.6883 10.9605 13.5042C10.9605 13.4057 11.012 13.3762 11.1179 13.3762C11.2154 13.381 11.3072 13.4236 11.3738 13.495L11.5828 13.2538C11.4867 13.1457 11.357 13.073 11.2146 13.0476V12.7953H10.9384V13.0549C10.8283 13.0725 10.7287 13.1302 10.6586 13.2169C10.5886 13.3036 10.5531 13.4132 10.5591 13.5245C10.5591 13.9553 11.1943 13.9848 11.1943 14.1791C11.1943 14.2711 11.1455 14.3171 11.0221 14.3171C10.8967 14.31 10.7772 14.2614 10.6824 14.1791L10.4983 14.4645C10.6235 14.5669 10.7757 14.6308 10.9365 14.6486V14.8962H11.2127V14.6311C11.3242 14.6109 11.4246 14.5508 11.4951 14.462C11.5656 14.3733 11.6013 14.2619 11.5957 14.1487V14.1487Z" stroke="#EB996E" stroke-width="0.376003" stroke-linecap="round" stroke-linejoin="round"/>
</g>
<g opacity="0.3">
<path d="M10.0611 36.203C11.9408 35.9968 13.2974 34.3058 13.0913 32.4261C12.8851 30.5465 11.1941 29.1898 9.31444 29.396C7.43475 29.6022 6.07812 31.2931 6.28431 33.1728C6.4905 35.0525 8.18144 36.4091 10.0611 36.203Z" stroke="#EB996E" stroke-width="0.376003" stroke-linecap="round" stroke-linejoin="round"/>
<path d="M12.3068 34.0883C13.02 32.6428 12.4263 30.8929 10.9808 30.1798C9.53535 29.4666 7.78545 30.0603 7.07231 31.5058C6.35917 32.9513 6.95284 34.7012 8.39831 35.4143C9.84378 36.1274 11.5937 35.5338 12.3068 34.0883Z" stroke="#EB996E" stroke-width="0.376003" stroke-linecap="round" stroke-linejoin="round"/>
<path d="M10.9319 33.3847C10.9319 32.4024 9.53984 32.3812 9.53984 31.9706C9.53984 31.7552 9.65308 31.6898 9.88509 31.6898C10.0849 31.6898 10.2533 31.7764 10.4467 31.9494L10.907 31.4201C10.6939 31.1824 10.4068 31.0234 10.0922 30.969V30.4166H9.48552V30.9855C8.96628 31.0978 8.65694 31.4689 8.65694 32.0139C8.65694 32.9585 10.049 33.0174 10.049 33.4492C10.049 33.66 9.94125 33.7512 9.6715 33.7512C9.44502 33.7512 9.21762 33.6646 8.92669 33.4492L8.52713 34.0752C8.80092 34.3012 9.13457 34.4426 9.48737 34.4821V35.0244H10.0922V34.4444C10.6538 34.3109 10.9319 33.904 10.9319 33.3847Z" stroke="#EB996E" stroke-width="0.376003" stroke-linecap="round" stroke-linejoin="round"/>
</g>
<path d="M7.7271 16.3297C7.74919 16.7689 7.37909 17.6821 7.37909 17.6831C7.37909 17.684 6.85064 17.2568 6.82118 17.2227C6.47501 16.86 6.01837 15.9568 6.28536 15.4634C6.33201 15.3826 6.39514 15.3125 6.47064 15.2578C6.54614 15.203 6.63233 15.1647 6.72359 15.1455C6.81486 15.1262 6.90916 15.1263 7.00036 15.1459C7.09156 15.1654 7.17763 15.204 7.25296 15.259C7.57979 15.4845 7.70776 15.9559 7.7271 16.3297Z" fill="#BC9434"/>
<path d="M16.6869 25.0538L16.7439 25.0878L16.7513 25.4846L16.5138 25.3383C16.2845 25.1956 16.0424 25.039 15.7947 24.8779C15.6033 25.0864 15.3998 25.2835 15.1853 25.4681C15.3749 25.8474 15.455 26.6649 15.4615 26.7699C15.7275 26.7634 15.9862 26.7542 16.2302 26.7422C16.3978 26.734 16.5589 26.7247 16.7145 26.7146L16.5837 27.0608C16.4723 27.0608 16.36 27.0691 16.2431 27.0718C15.9733 27.0792 15.6852 27.0829 15.3887 27.0829C15.3722 27.1888 15.2304 28.0588 15.003 28.404C14.7968 28.7161 14.4506 29.0567 14.051 29.0816C13.9588 29.0903 13.8658 29.0797 13.778 29.0503C13.6901 29.021 13.6094 28.9735 13.541 28.9111C13.4726 28.8487 13.418 28.7726 13.3807 28.6878C13.3435 28.603 13.3244 28.5114 13.3246 28.4187C13.3458 27.8571 14.1983 27.314 14.6808 27.1759C14.7093 27.1685 15.0278 27.116 15.2285 27.0838C15.1079 27.0838 14.9901 27.0838 14.8658 27.0838C14.6191 27.0838 14.3733 27.0709 14.1081 27.0617L13.7214 27.0341C13.5926 27.0276 13.4563 27.0046 13.3228 26.9899C13.0125 26.9503 12.7014 26.8978 12.3883 26.8325C12.3883 27.0479 12.3644 27.8139 12.2042 28.1554C12.044 28.497 11.754 28.8855 11.3664 28.9702C11.2759 28.9931 11.1816 28.9966 11.0896 28.9806C10.9976 28.9646 10.91 28.9294 10.8325 28.8773C10.755 28.8252 10.6894 28.7573 10.6399 28.6782C10.5904 28.599 10.5581 28.5103 10.5452 28.4178C10.4808 27.8599 11.2412 27.1915 11.6979 26.9844C11.7255 26.9715 12.0661 26.8601 12.2604 26.8002C12.0762 26.7607 11.8848 26.7229 11.696 26.6769C11.151 26.5443 10.6041 26.3933 10.0573 26.2451L9.55735 26.1171C9.55735 26.1945 9.55275 27.1059 9.37322 27.488C9.21671 27.8277 8.9221 28.218 8.53543 28.3027C8.4449 28.3258 8.35052 28.3294 8.25848 28.3135C8.16643 28.2976 8.07878 28.2624 8.00127 28.2102C7.92375 28.1581 7.85812 28.0902 7.80865 28.0109C7.75919 27.9317 7.72701 27.8429 7.71421 27.7503C7.64977 27.1924 8.41022 26.524 8.86594 26.3169C8.90093 26.3013 9.39624 26.1411 9.52421 26.107C9.15595 26.0094 8.78769 25.9164 8.41943 25.84C7.92421 25.7338 7.42264 25.6597 6.91785 25.6181C6.91785 25.654 6.91785 26.6051 6.73372 26.9991C6.57629 27.3388 6.28261 27.7283 5.89594 27.813C5.80534 27.8361 5.71087 27.8399 5.61871 27.824C5.52655 27.8082 5.43879 27.773 5.36117 27.7209C5.28355 27.6687 5.21782 27.6007 5.1683 27.5214C5.11877 27.4421 5.08657 27.3532 5.0738 27.2606C5.01027 26.7036 5.76981 26.0343 6.22645 25.8271C6.26235 25.8115 6.79541 25.643 6.89392 25.6144C6.86446 25.6144 6.835 25.6071 6.80185 25.6052C6.29463 25.5777 5.78597 25.5953 5.28186 25.6577C5.00567 25.689 4.73868 25.7341 4.48182 25.7838C4.50023 25.9615 4.57388 26.7717 4.45052 27.1427C4.33175 27.4981 4.08226 27.917 3.70663 28.044C3.62017 28.075 3.52822 28.0877 3.43659 28.0814C3.34496 28.075 3.25565 28.0497 3.17431 28.007C3.09297 27.9644 3.02137 27.9053 2.96403 27.8335C2.9067 27.7618 2.86488 27.6789 2.84122 27.5902C2.71602 27.0378 3.39361 26.2948 3.82908 26.0389C3.8521 26.0251 4.10527 25.91 4.2894 25.828C4.1734 25.8529 4.05464 25.8759 3.94416 25.9008C3.53079 25.9928 3.15701 26.107 2.82741 26.2092C2.64328 26.269 2.47296 26.3261 2.31645 26.3813C2.24372 26.5655 1.93991 27.302 1.66464 27.5662C1.38936 27.8304 0.980594 28.0836 0.589319 28.0265C0.198043 27.9695 -0.0809135 27.6086 0.0212785 27.2173C0.162138 26.6741 1.11225 26.3243 1.61308 26.2966C1.65635 26.2966 2.33671 26.3335 2.33303 26.3427V26.3537C2.48309 26.2976 2.64328 26.2386 2.82097 26.1788C3.14872 26.0692 3.52066 25.9486 3.93403 25.8446C4.3781 25.7261 4.82877 25.6339 5.2837 25.5684C5.79263 25.4941 6.30714 25.4652 6.82119 25.4819H6.8396C6.68401 25.4266 6.25683 25.2572 6.22553 25.2407C5.78362 25.0041 5.06827 24.2887 5.1677 23.7363C5.18679 23.6451 5.22489 23.5588 5.27952 23.4833C5.33415 23.4077 5.40409 23.3445 5.48478 23.2978C5.56547 23.251 5.65511 23.2218 5.74784 23.212C5.84057 23.2023 5.93432 23.2121 6.02298 23.241C6.40413 23.3506 6.66744 23.7575 6.80646 24.1073C6.95836 24.5014 6.90404 25.4147 6.89852 25.4883C7.42119 25.5185 7.94128 25.5834 8.45534 25.6826C8.75455 25.7387 9.0556 25.805 9.35573 25.875C9.22316 25.8225 9.10531 25.7746 9.08966 25.7664C8.64683 25.5297 7.93241 24.8144 8.03184 24.262C8.05095 24.1707 8.08905 24.0845 8.14367 24.0089C8.19829 23.9333 8.2682 23.8701 8.34887 23.8233C8.42953 23.7764 8.51915 23.7471 8.61188 23.7372C8.70461 23.7273 8.79839 23.7371 8.88712 23.7658C9.26827 23.8753 9.53618 24.2832 9.67059 24.633C9.80501 24.9829 9.77647 25.7673 9.76266 25.9735C9.87774 26.0011 9.99282 26.0278 10.107 26.0564C10.6594 26.1926 11.2118 26.3326 11.7494 26.4504C11.94 26.4927 12.1306 26.5277 12.3202 26.5627C12.2024 26.5158 12.1039 26.4762 12.0901 26.4706C11.6472 26.235 10.9319 25.5187 11.0322 24.9663C11.0513 24.875 11.0894 24.7888 11.144 24.7132C11.1987 24.6377 11.2686 24.5745 11.3493 24.5277C11.43 24.481 11.5196 24.4518 11.6124 24.442C11.7051 24.4323 11.7989 24.4421 11.8875 24.471C12.2677 24.5806 12.5366 24.9884 12.671 25.3373C12.8054 25.6863 12.7796 26.3961 12.763 26.641C12.9582 26.6713 13.1543 26.7017 13.3449 26.722C13.4756 26.733 13.5999 26.7533 13.7316 26.757L14.1192 26.7763C14.3659 26.7763 14.62 26.7837 14.8612 26.7809C15.0278 26.7809 15.188 26.7763 15.3482 26.7726C15.1577 26.733 14.7857 26.6474 14.7553 26.6364C14.3452 26.4745 13.9833 26.2105 13.704 25.8695C13.6577 25.8534 13.613 25.833 13.5705 25.8087C13.488 25.7651 13.4156 25.7046 13.3581 25.6312C13.3005 25.5578 13.2591 25.473 13.2365 25.3825C13.2139 25.292 13.2107 25.1977 13.227 25.1059C13.2433 25.014 13.2787 24.9266 13.3311 24.8494C13.6579 24.3937 14.6697 24.4084 15.1466 24.5621C15.1751 24.5713 15.4698 24.703 15.6539 24.7895C15.5535 24.7223 15.455 24.6579 15.3519 24.587C15.1475 24.4489 14.9477 24.3053 14.7323 24.1515L14.4313 23.9076C14.3272 23.8311 14.2269 23.7372 14.1228 23.6507C13.8872 23.4472 13.657 23.2281 13.4305 23.0062C13.3099 23.1849 12.8698 23.8127 12.5495 24.0107C12.2291 24.2086 11.7715 24.3707 11.4023 24.2279C11.0332 24.0852 10.8361 23.6756 11.0193 23.3165C11.2734 22.8157 12.2769 22.6776 12.7686 22.7558C12.7999 22.7614 13.1479 22.858 13.3385 22.9142C13.204 22.7779 13.0687 22.6426 12.9361 22.4999C12.555 22.0893 12.1812 21.6612 11.8074 21.2358C11.6923 21.106 11.5763 20.9771 11.4613 20.8482C11.4189 20.9127 10.9089 21.6704 10.5535 21.8923C10.2359 22.0893 9.77555 22.2513 9.40637 22.1086C9.31829 22.078 9.23765 22.0292 9.16966 21.9654C9.10168 21.9016 9.04788 21.8242 9.01176 21.7382C8.97564 21.6523 8.95801 21.5597 8.96001 21.4665C8.96201 21.3733 8.9836 21.2815 9.02338 21.1972C9.2784 20.6973 10.281 20.5582 10.7726 20.6374C10.8104 20.6439 11.3121 20.7829 11.4373 20.8215C11.1832 20.5371 10.9273 20.2563 10.664 19.993C10.3096 19.6315 9.93223 19.2932 9.53434 18.9803C9.515 19.0106 8.98931 19.8033 8.62289 20.0307C8.30435 20.2277 7.84403 20.3907 7.47485 20.248C7.38674 20.2173 7.30607 20.1684 7.2381 20.1045C7.17013 20.0406 7.11638 19.9631 7.08034 19.877C7.0443 19.791 7.02679 19.6983 7.02893 19.605C7.03107 19.5117 7.05283 19.4199 7.09278 19.3356C7.34688 18.8357 8.34946 18.6976 8.84201 18.7759C8.8816 18.7823 9.4211 18.9333 9.51684 18.9674C9.49383 18.949 9.47173 18.9278 9.4478 18.9103C9.03988 18.6079 8.60611 18.342 8.15152 18.1158C7.90203 17.9887 7.65621 17.8801 7.415 17.7797C7.33215 17.9381 6.94547 18.6543 6.6389 18.8956C6.33232 19.1368 5.90238 19.3384 5.52123 19.2371C5.43036 19.2162 5.34489 19.1765 5.27038 19.1204C5.19587 19.0644 5.13399 18.9933 5.08875 18.9118C5.04352 18.8302 5.01594 18.7401 5.00781 18.6472C4.99968 18.5543 5.01118 18.4608 5.04157 18.3726C5.23859 17.8479 6.22 17.6002 6.72084 17.6241C6.74846 17.6241 7.02373 17.6693 7.22351 17.7042C7.11395 17.661 7.00163 17.6122 6.89576 17.5744C6.49804 17.4253 6.12518 17.313 5.79098 17.2154C5.60685 17.162 5.43009 17.1178 5.26897 17.0773C5.10694 17.1896 4.44868 17.6352 4.07213 17.7052C3.69559 17.7751 3.21593 17.7604 2.92316 17.4943C2.6304 17.2283 2.59449 16.7762 2.89554 16.5065C3.3126 16.1308 4.29769 16.3638 4.73131 16.6151C4.76814 16.6372 5.31501 17.0451 5.30672 17.0515L5.29659 17.0579C5.45218 17.0938 5.61882 17.1334 5.80019 17.1804C6.13438 17.2725 6.51001 17.3746 6.91233 17.5164C7.34741 17.6638 7.77348 17.8366 8.18835 18.0338C8.65369 18.253 9.09885 18.5127 9.51868 18.8099L9.5325 18.8219C9.43399 18.6902 9.1716 18.3128 9.15411 18.2815C8.91566 17.8405 8.71404 16.849 9.10255 16.4402C9.16883 16.3747 9.24815 16.3239 9.33535 16.2911C9.42256 16.2583 9.51569 16.2442 9.6087 16.2497C9.70171 16.2553 9.7925 16.2804 9.87518 16.3233C9.95786 16.3663 10.0306 16.4262 10.0886 16.4991C10.3463 16.8002 10.3445 17.2881 10.2644 17.6536C10.1723 18.0661 9.61996 18.798 9.58037 18.856C10.0039 19.1702 10.4059 19.5126 10.7837 19.8806C11.0028 20.0933 11.2173 20.3134 11.4281 20.5371C11.3471 20.4211 11.2744 20.3161 11.2661 20.3005C11.0276 19.8595 10.826 18.867 11.2145 18.4592C11.2808 18.3937 11.3601 18.3429 11.4473 18.3101C11.5345 18.2773 11.6277 18.2632 11.7207 18.2687C11.8137 18.2743 11.9045 18.2994 11.9871 18.3423C12.0698 18.3853 12.1425 18.4452 12.2005 18.5181C12.4583 18.8191 12.4565 19.3071 12.3764 19.6726C12.2963 20.0381 11.8387 20.677 11.7154 20.8436C11.7964 20.9302 11.8774 21.0158 11.9575 21.1023C12.3414 21.5203 12.7225 21.9383 13.1092 22.3369C13.2455 22.4778 13.3854 22.6131 13.5235 22.7457C13.4517 22.6417 13.3919 22.5542 13.3836 22.5395C13.1451 22.0985 12.9435 21.107 13.332 20.6982C13.6082 20.4063 14.0685 20.4625 14.318 20.7571C14.5675 21.0517 14.574 21.547 14.4939 21.9125C14.4138 22.278 14.0004 22.8543 13.8549 23.0523C14.0013 23.1858 14.1477 23.3193 14.2959 23.4417C14.3981 23.5227 14.492 23.6084 14.5997 23.6838L14.9118 23.9131C15.1162 24.0521 15.3252 24.1966 15.5278 24.3265C15.6677 24.4185 15.8039 24.5032 15.9393 24.5888C15.8021 24.4507 15.5388 24.1736 15.5195 24.1479C15.2166 23.7483 14.8677 22.7991 15.1899 22.3388C15.2455 22.264 15.3162 22.2017 15.3974 22.156C15.4787 22.1103 15.5686 22.0822 15.6615 22.0735C15.7543 22.0648 15.8479 22.0757 15.9362 22.1056C16.0245 22.1354 16.1055 22.1835 16.1741 22.2467C16.4733 22.5054 16.5423 22.9878 16.5221 23.3616C16.4954 23.7731 16.0838 24.5502 16.0313 24.6505C16.256 24.7941 16.476 24.9295 16.6869 25.0538Z" fill="#BC9434"/>
<path d="M4.40357 25.7258C4.40357 25.736 3.72781 25.6614 3.68546 25.6522C3.1966 25.5408 2.31738 25.039 2.26766 24.4802C2.26213 24.3871 2.27626 24.2939 2.30912 24.2066C2.34198 24.1193 2.39285 24.0399 2.45841 23.9735C2.52397 23.9072 2.60275 23.8554 2.68964 23.8215C2.77654 23.7876 2.86959 23.7724 2.96275 23.7768C3.35863 23.7814 3.72505 24.1036 3.94693 24.4056C4.20747 24.7591 4.40357 25.7249 4.40357 25.7258Z" fill="#BC9434"/>
<path d="M53.3102 16.3297C53.2881 16.7689 53.6573 17.6821 53.6573 17.6831C53.6573 17.684 54.1858 17.2568 54.2162 17.2227C54.5623 16.86 55.019 15.9568 54.752 15.4634C54.7053 15.3826 54.6422 15.3125 54.5667 15.2578C54.4912 15.203 54.405 15.1647 54.3137 15.1455C54.2225 15.1262 54.1282 15.1263 54.037 15.1459C53.9458 15.1654 53.8597 15.204 53.7844 15.259C53.4566 15.4845 53.3286 15.9559 53.3102 16.3297Z" fill="#BC9434"/>
<path d="M44.3505 25.0538L44.2925 25.0878L44.2861 25.4846L44.5236 25.3382C44.7528 25.1955 44.995 25.039 45.2417 24.8779C45.4331 25.0864 45.6366 25.2835 45.8512 25.4681C45.6615 25.8474 45.5823 26.6649 45.575 26.7698C45.3089 26.7634 45.0511 26.7542 44.8072 26.7422C44.6387 26.7339 44.4776 26.7247 44.3229 26.7146L44.4545 27.0635C44.565 27.0635 44.6773 27.0718 44.7943 27.0746C45.064 27.0819 45.3531 27.0856 45.6496 27.0856C45.6661 27.1915 45.8079 28.0615 46.0353 28.4068C46.2415 28.7189 46.5877 29.0595 46.9863 29.0844C47.0791 29.0935 47.1729 29.0831 47.2613 29.0536C47.3498 29.0242 47.4311 28.9764 47.4999 28.9134C47.5687 28.8504 47.6235 28.7737 47.6606 28.6881C47.6978 28.6026 47.7165 28.5102 47.7155 28.4169C47.6943 27.8553 46.8418 27.3121 46.3594 27.174C46.3308 27.1666 46.0123 27.1142 45.807 27.0819C45.9285 27.0819 46.0454 27.0819 46.1752 27.0819C46.422 27.0819 46.6678 27.0691 46.932 27.0599L47.3187 27.0322C47.4485 27.0258 47.5838 27.0028 47.7182 26.988C48.0276 26.9485 48.3397 26.896 48.6527 26.8306C48.6527 27.046 48.6757 27.812 48.8368 28.1536C48.9979 28.4951 49.288 28.8837 49.6746 28.9684C49.7652 28.9912 49.8596 28.9948 49.9516 28.9788C50.0437 28.9628 50.1313 28.9276 50.2089 28.8755C50.2864 28.8234 50.3521 28.7556 50.4017 28.6764C50.4513 28.5972 50.4837 28.5085 50.4968 28.416C50.5603 27.8581 49.8008 27.1897 49.3441 26.9825C49.3156 26.9696 48.9758 26.8582 48.7816 26.7984C48.9657 26.7588 49.1563 26.7211 49.346 26.675C49.8901 26.5424 50.4378 26.3915 50.9847 26.2432L51.4763 26.1171C51.4763 26.1944 51.4809 27.1059 51.6605 27.488C51.817 27.8277 52.1107 28.218 52.4973 28.3027C52.884 28.3874 53.2734 28.1545 53.3195 27.7503C53.383 27.1924 52.6235 26.524 52.1668 26.3169C52.1328 26.3012 51.6374 26.141 51.5095 26.107C51.8777 26.0094 52.246 25.9164 52.6143 25.84C53.1092 25.7338 53.6104 25.6597 54.1149 25.6181C54.1149 25.654 54.1149 26.6051 54.299 26.9991C54.4555 27.3388 54.7502 27.7282 55.1368 27.8129C55.2274 27.836 55.3217 27.8396 55.4138 27.8237C55.5058 27.8078 55.5935 27.7726 55.671 27.7204C55.7485 27.6683 55.8141 27.6004 55.8636 27.5211C55.9131 27.4419 55.9453 27.3531 55.958 27.2606C56.0225 26.7036 55.263 26.0342 54.8063 25.8271C54.7704 25.8115 54.2374 25.643 54.1379 25.6144C54.1674 25.6144 54.1978 25.6071 54.23 25.6052C54.7369 25.5777 55.2453 25.5953 55.7491 25.6577C56.0253 25.689 56.2932 25.7341 56.5491 25.7838C56.5316 25.9615 56.457 26.7717 56.5813 27.1427C56.7001 27.4981 56.9496 27.917 57.3243 28.044C57.4112 28.0761 57.5038 28.0896 57.5963 28.0838C57.6887 28.078 57.7789 28.0529 57.8611 28.0101C57.9433 27.9674 58.0156 27.908 58.0734 27.8356C58.1313 27.7633 58.1734 27.6797 58.1971 27.5901C58.3223 27.0378 57.6447 26.2948 57.2092 26.0389C57.1862 26.025 56.933 25.91 56.7489 25.828C56.864 25.8529 56.9837 25.8759 57.0941 25.9008C57.5075 25.9928 57.8804 26.107 58.21 26.2092C58.3941 26.269 58.5653 26.3261 58.7218 26.3813C58.7946 26.5655 59.0984 27.302 59.3737 27.5662C59.6489 27.8304 60.0568 28.0836 60.448 28.0265C60.5406 28.0153 60.6299 27.9848 60.7099 27.9369C60.7899 27.889 60.859 27.8249 60.9127 27.7486C60.9663 27.6723 61.0033 27.5855 61.0213 27.494C61.0393 27.4025 61.0378 27.3082 61.017 27.2173C60.8752 26.6741 59.9251 26.3243 59.4252 26.2966C59.3819 26.2966 58.7016 26.3335 58.7053 26.3427V26.3537C58.5561 26.2976 58.395 26.2386 58.2182 26.1788C57.8896 26.0692 57.5185 25.9486 57.1052 25.8446C56.6611 25.7262 56.2104 25.6339 55.7555 25.5684C55.2466 25.4941 54.7321 25.4652 54.218 25.4819H54.1996C54.3543 25.4266 54.7824 25.2572 54.8137 25.2407C55.2556 25.004 55.9709 24.2887 55.8706 23.7363C55.8515 23.645 55.8134 23.5588 55.7588 23.4832C55.7041 23.4077 55.6342 23.3445 55.5535 23.2977C55.4728 23.251 55.3832 23.2218 55.2904 23.212C55.1977 23.2023 55.104 23.2121 55.0153 23.241C54.6351 23.3506 54.3662 23.7575 54.2318 24.1073C54.0799 24.5014 54.1398 25.4147 54.1398 25.4883C53.6165 25.518 53.0958 25.5826 52.5811 25.6816C52.281 25.7378 51.9808 25.8041 51.6807 25.8741C51.8133 25.8216 51.9311 25.7737 51.9468 25.7654C52.3887 25.5288 53.104 24.8135 53.0046 24.2611C52.9855 24.1698 52.9474 24.0836 52.8928 24.008C52.8382 23.9324 52.7682 23.8691 52.6876 23.8223C52.6069 23.7755 52.5173 23.7462 52.4246 23.7363C52.3318 23.7264 52.2381 23.7361 52.1493 23.7649C51.7682 23.8744 51.4993 24.2823 51.3649 24.6321C51.2305 24.9819 51.26 25.7663 51.2729 25.9726L50.9276 26.0554C50.3752 26.1917 49.8284 26.3316 49.2861 26.4495C49.0946 26.4918 48.905 26.5268 48.7153 26.5618C48.8322 26.5148 48.9307 26.4752 48.9455 26.4697C49.3874 26.234 50.1027 25.5178 50.0033 24.9654C49.9842 24.8741 49.9461 24.7879 49.8915 24.7123C49.8368 24.6367 49.7669 24.5735 49.6862 24.5268C49.6055 24.4801 49.5159 24.4509 49.4232 24.4411C49.3304 24.4313 49.2367 24.4412 49.148 24.4701C48.7669 24.5796 48.499 24.9875 48.3645 25.3364C48.2301 25.6853 48.2541 26.3933 48.2679 26.6373C48.0727 26.6677 47.8766 26.698 47.686 26.7183C47.5553 26.7293 47.4301 26.7496 47.2984 26.7533L46.9118 26.7726C46.665 26.7726 46.41 26.78 46.1697 26.7772C46.0022 26.7772 45.8429 26.7726 45.6827 26.7689C45.8733 26.7293 46.2452 26.6437 46.2747 26.6327C46.6849 26.4712 47.0469 26.2071 47.326 25.8658C47.3726 25.8497 47.4176 25.8293 47.4605 25.805C47.5428 25.7613 47.6151 25.7008 47.6726 25.6273C47.73 25.5539 47.7714 25.4692 47.794 25.3787C47.8165 25.2882 47.8198 25.194 47.8036 25.1022C47.7874 25.0104 47.752 24.923 47.6998 24.8457C47.373 24.39 46.3603 24.4047 45.8834 24.5585C45.8558 24.5677 45.5612 24.6993 45.3761 24.7859C45.4774 24.7186 45.5759 24.6542 45.6781 24.5833C45.8825 24.4452 46.0823 24.3016 46.2977 24.1478L46.6052 23.9112C46.7092 23.8348 46.8096 23.7409 46.9136 23.6544C47.1502 23.4509 47.3794 23.2318 47.6059 23.0099C47.7275 23.1885 48.1675 23.8164 48.487 24.0143C48.8065 24.2123 49.2668 24.3679 49.635 24.2289C50.0033 24.0898 50.2003 23.6765 50.0171 23.3174C49.763 22.8166 48.7604 22.6785 48.2679 22.7567C48.2375 22.7623 47.8886 22.8589 47.698 22.9151C47.8333 22.7788 47.9687 22.6435 48.1003 22.5008C48.4824 22.0902 48.8552 21.6621 49.2299 21.2368C49.3441 21.1069 49.4601 20.978 49.5752 20.8492C49.6185 20.9136 50.1276 21.6713 50.483 21.8932C50.8015 22.0902 51.2618 22.2522 51.631 22.1095C51.7191 22.0789 51.7997 22.0302 51.8677 21.9663C51.9357 21.9025 51.9894 21.8251 52.0255 21.7391C52.0615 21.6531 52.079 21.5605 52.0769 21.4673C52.0748 21.374 52.053 21.2823 52.0131 21.1981C51.759 20.6982 50.7564 20.5592 50.2638 20.6383C50.227 20.6448 49.7253 20.7838 49.5991 20.8225C49.8532 20.538 50.1101 20.2572 50.3734 19.9939C50.7273 19.6322 51.1043 19.2939 51.5021 18.9812C51.5224 19.0115 52.0481 19.8042 52.4145 20.0316C52.733 20.2286 53.1924 20.3916 53.5625 20.2489C53.6506 20.2182 53.7313 20.1693 53.7993 20.1054C53.8672 20.0415 53.921 19.964 53.957 19.8779C53.9931 19.7919 54.0106 19.6992 54.0084 19.6059C54.0063 19.5126 53.9845 19.4208 53.9446 19.3365C53.6905 18.8366 52.6879 18.6985 52.1954 18.7768C52.1567 18.7832 51.6172 18.9342 51.5214 18.9683C51.5445 18.9499 51.5666 18.9287 51.5896 18.9112C51.9978 18.6088 52.4319 18.3429 52.8868 18.1167C53.1363 17.9896 53.3821 17.881 53.6233 17.7806C53.7061 17.939 54.0919 18.6553 54.3994 18.8965C54.7069 19.1377 55.1359 19.3393 55.5161 19.238C55.6071 19.2173 55.6927 19.1776 55.7673 19.1216C55.8419 19.0656 55.9039 18.9945 55.9492 18.9129C55.9945 18.8314 56.0222 18.7412 56.0304 18.6483C56.0386 18.5554 56.0271 18.4617 55.9967 18.3735C55.7988 17.8488 54.8174 17.6011 54.3165 17.625C54.2898 17.625 54.0146 17.6702 53.8148 17.7051C53.9243 17.6619 54.0367 17.6131 54.1425 17.5753C54.5393 17.4262 54.9122 17.3139 55.2473 17.2163C55.4314 17.1629 55.6082 17.1187 55.7684 17.0782C55.9304 17.1905 56.5887 17.6361 56.9652 17.7061C57.3418 17.776 57.8205 17.7613 58.1142 17.4952C58.4079 17.2292 58.4429 16.7771 58.1418 16.5074C57.7239 16.1318 56.7388 16.3647 56.3061 16.616C56.2683 16.6381 55.7224 17.046 55.7306 17.0524L55.7408 17.0588C55.5843 17.0948 55.4176 17.1343 55.2372 17.1813C54.903 17.2734 54.5264 17.3756 54.1241 17.5173C53.6893 17.6647 53.2636 17.8375 52.849 18.0347C52.3835 18.2535 51.9383 18.5133 51.5187 18.8108L51.504 18.8228C51.6025 18.6912 51.8658 18.3137 51.8823 18.2824C52.1208 17.8414 52.3224 16.8499 51.9348 16.4411C51.8685 16.3756 51.7891 16.3248 51.7018 16.292C51.6145 16.2591 51.5213 16.245 51.4282 16.2506C51.3351 16.2562 51.2443 16.2812 51.1615 16.3242C51.0788 16.3672 51.006 16.4271 50.9479 16.5C50.691 16.8011 50.6919 17.289 50.773 17.6545C50.865 18.067 51.4174 18.7989 51.457 18.8569C51.0377 19.1704 50.6397 19.5115 50.2657 19.8779C50.0466 20.0905 49.833 20.3106 49.6212 20.5343C49.7022 20.4183 49.7741 20.3133 49.7833 20.2977C50.0217 19.8567 50.2224 18.8642 49.8348 18.4564C49.7685 18.3909 49.6891 18.3401 49.6018 18.3073C49.5145 18.2744 49.4213 18.2603 49.3282 18.2659C49.2351 18.2715 49.1443 18.2965 49.0615 18.3395C48.9788 18.3825 48.906 18.4424 48.8479 18.5153C48.591 18.8164 48.5919 19.3043 48.673 19.6698C48.754 20.0353 49.2106 20.6742 49.3331 20.8409L49.0826 21.1051C48.6987 21.5231 48.3167 21.941 47.93 22.3397C47.7947 22.4805 47.6538 22.6159 47.5157 22.7485C47.5884 22.6444 47.6483 22.557 47.6556 22.5422C47.8941 22.1012 48.0957 21.1097 47.7081 20.7009C47.6418 20.6354 47.5624 20.5846 47.4751 20.5518C47.3878 20.519 47.2946 20.5049 47.2015 20.5104C47.1084 20.516 47.0176 20.5411 46.9348 20.584C46.8521 20.627 46.7793 20.6869 46.7212 20.7599C46.4643 21.0609 46.4652 21.5498 46.5463 21.9153C46.6273 22.2808 47.0397 22.8571 47.1843 23.055C47.0379 23.1885 46.8924 23.322 46.7442 23.4445C46.6411 23.5255 46.5481 23.6111 46.4404 23.6866L46.1274 23.9158C45.9239 24.0549 45.714 24.1994 45.5115 24.3292C45.3715 24.4213 45.2353 24.506 45.1008 24.5916C45.238 24.4535 45.5013 24.1764 45.5207 24.1506C45.8226 23.751 46.1725 22.8019 45.8503 22.3415C45.7946 22.2667 45.7239 22.2044 45.6427 22.1587C45.5614 22.113 45.4715 22.0849 45.3787 22.0762C45.2859 22.0676 45.1923 22.0785 45.104 22.1083C45.0156 22.1382 44.9346 22.1863 44.8661 22.2495C44.5659 22.5082 44.4978 22.9906 44.5171 23.3644C44.5448 23.7759 44.9563 24.5529 45.0079 24.6533C44.7814 24.7941 44.5604 24.9295 44.3505 25.0538Z" fill="#BC9434"/>
<path d="M56.6319 25.7258C56.6319 25.736 57.3077 25.6614 57.35 25.6522C57.838 25.5408 58.7172 25.039 58.7669 24.4802C58.8028 24.0779 58.4603 23.7722 58.0727 23.7768C57.6851 23.7814 57.3104 24.1036 57.0886 24.4056C56.8299 24.7591 56.6319 25.7249 56.6319 25.7258Z" fill="#BC9434"/>
<path d="M18.2029 8.59555L16.6357 9.82263L18.5376 12.2517L20.1048 11.0246L18.2029 8.59555Z" fill="#BC9434" stroke="#BC9434" stroke-width="0.376003" stroke-linejoin="round"/>
<path d="M18.0775 7.30486L15.4128 9.39124L16.7625 11.115L19.4272 9.02864L18.0775 7.30486Z" fill="#BC9434" stroke="#BC9434" stroke-width="0.376003" stroke-linejoin="round"/>
<path d="M15.9881 9.02252L16.9778 10.2866" stroke="#BC9434" stroke-width="0.376003" stroke-linejoin="round"/>
<path d="M16.8903 8.31638L17.88 9.57951" stroke="#BC9434" stroke-width="0.376003" stroke-linejoin="round"/>
<path d="M16.6445 8.99399L17.6342 10.2571" stroke="#BC9434" stroke-width="0.376003" stroke-linejoin="round"/>
<path d="M38.5353 11.0264L40.1025 12.2535L42.0044 9.82438L40.4372 8.5973L38.5353 11.0264Z" fill="#BC9434" stroke="#BC9434" stroke-width="0.376003" stroke-linejoin="round"/>
<path d="M39.2144 9.02819L41.8791 11.1146L43.2288 9.39078L40.5641 7.3044L39.2144 9.02819Z" fill="#BC9434" stroke="#BC9434" stroke-width="0.376003" stroke-linejoin="round"/>
<path d="M42.6546 9.02252L41.6649 10.2866" stroke="#BC9434" stroke-width="0.376003" stroke-linejoin="round"/>
<path d="M41.7524 8.31638L40.7627 9.57951" stroke="#BC9434" stroke-width="0.376003" stroke-linejoin="round"/>
<path d="M41.9982 8.99399L41.0085 10.2571" stroke="#BC9434" stroke-width="0.376003" stroke-linejoin="round"/>
<path d="M30.8151 4.32812H27.5873V7.56052H30.8151V4.32812Z" fill="#BC9434" stroke="#BC9434" stroke-width="0.376003" stroke-linejoin="round"/>
<path d="M31.5369 2.47394H26.8655V5.70633H31.5369V2.47394Z" fill="#BC9434" stroke="#BC9434" stroke-width="0.376003" stroke-linejoin="round"/>
<path d="M27.2853 2.46289V5.15671" stroke="#BC9434" stroke-width="0.376003" stroke-linejoin="round"/>
<path d="M27.6702 5.27732V3.83374" stroke="#BC9434" stroke-width="0.376003" stroke-linejoin="round"/>
<path d="M28.0789 2.53561V4.57945" stroke="#BC9434" stroke-width="0.376003" stroke-linejoin="round"/>
<path d="M28.4877 3.52164V5.39792" stroke="#BC9434" stroke-width="0.376003" stroke-linejoin="round"/>
<path d="M29.1138 2.55957V4.67614" stroke="#BC9434" stroke-width="0.376003" stroke-linejoin="round"/>
<path d="M41.1405 35.8198C47.7347 29.2255 47.7347 18.5342 41.1405 11.9399C34.5463 5.34568 23.8549 5.34568 17.2606 11.9399C10.6664 18.5342 10.6664 29.2255 17.2606 35.8198C23.8549 42.414 34.5463 42.414 41.1405 35.8198Z" fill="#BC9434" stroke="#BC9434" stroke-width="0.376003" stroke-linejoin="round"/>
<path d="M39.7409 34.4201C45.5621 28.5989 45.5621 19.1608 39.7409 13.3396C33.9196 7.51833 24.4815 7.51833 18.6603 13.3396C12.8391 19.1608 12.8391 28.5989 18.6603 34.4201C24.4815 40.2414 33.9196 40.2414 39.7409 34.4201Z" fill="white" stroke="#BC9434" stroke-width="0.376003" stroke-linejoin="round"/>
<path d="M38.9147 33.594C44.2797 28.229 44.2797 19.5307 38.9147 14.1657C33.5498 8.80069 24.8514 8.80069 19.4864 14.1657C14.1214 19.5307 14.1214 28.229 19.4864 33.594C24.8514 38.959 33.5498 38.959 38.9147 33.594Z" fill="white" stroke="#BC9434" stroke-width="0.376003" stroke-linejoin="round"/>
<path d="M29.2012 10.142V12.0045" stroke="#BC9434" stroke-width="0.376003" stroke-linejoin="round"/>
<path d="M29.2012 35.7416V37.604" stroke="#BC9434" stroke-width="0.376003" stroke-linejoin="round"/>
<path d="M42.9317 23.8735H41.0693" stroke="#BC9434" stroke-width="0.376003" stroke-linejoin="round"/>
<path d="M17.3322 23.8735H15.4697" stroke="#BC9434" stroke-width="0.376003" stroke-linejoin="round"/>
<path d="M38.9104 14.1643L37.5929 15.4809" stroke="#BC9434" stroke-width="0.376003" stroke-linejoin="round"/>
<path d="M20.8086 32.2652L19.4921 33.5826" stroke="#BC9434" stroke-width="0.376003" stroke-linejoin="round"/>
<path d="M19.4921 14.1643L20.8086 15.4809" stroke="#BC9434" stroke-width="0.376003" stroke-linejoin="round"/>
<path d="M37.5929 32.2652L38.9104 33.5826" stroke="#BC9434" stroke-width="0.376003" stroke-linejoin="round"/>
<path d="M32.5901 22.5652L32.8046 23.3837L18.7647 26.7698L18.7003 26.524L32.5901 22.5652Z" fill="#BC9434" stroke="#BC9434" stroke-width="0.376003" stroke-linejoin="round"/>
<path d="M29.7398 23.88C29.7398 23.7734 29.7082 23.6693 29.649 23.5807C29.5898 23.4922 29.5057 23.4231 29.4073 23.3824C29.3089 23.3416 29.2006 23.3309 29.0961 23.3517C28.9916 23.3725 28.8957 23.4238 28.8204 23.4991C28.745 23.5744 28.6937 23.6704 28.673 23.7749C28.6522 23.8794 28.6628 23.9876 28.7036 24.0861C28.7444 24.1845 28.8134 24.2686 28.902 24.3278C28.9905 24.3869 29.0947 24.4185 29.2012 24.4185C29.2719 24.4185 29.342 24.4046 29.4073 24.3775C29.4726 24.3505 29.532 24.3108 29.582 24.2608C29.632 24.2108 29.6717 24.1514 29.6988 24.0861C29.7258 24.0207 29.7398 23.9507 29.7398 23.88Z" fill="white" stroke="#BC9434" stroke-width="0.376003" stroke-linejoin="round"/>
<path d="M24.0281 34.0881L23.1857 33.5357C23.1857 33.5357 22.6637 34.0411 22.6333 34.0881C22.6029 34.135 21.1686 34.3063 20.8841 34.3063C20.5996 34.3063 20.3961 34.2391 20.3621 34.3744C20.328 34.5097 20.7662 34.8117 21.4061 34.9802C21.6583 35.0465 22.0266 35.179 22.3893 35.3088L22.3323 35.4515C22.3323 35.4515 23.2916 35.8051 23.4435 35.8198C23.495 35.8263 23.5447 35.748 23.588 35.643C23.7381 35.5077 24.0281 34.0881 24.0281 34.0881Z" fill="#BC9434" stroke="#BC9434" stroke-width="0.376003" stroke-linejoin="round"/>
<path d="M38.2926 26.8831L38.4952 27.8663C38.4952 27.8663 39.2216 27.8755 39.2814 27.8663C39.3412 27.8571 40.4782 28.7437 40.678 28.9453C40.8778 29.1469 40.9763 29.3366 41.096 29.2648C41.2157 29.193 41.1172 28.67 40.7821 28.0992C40.6495 27.8746 40.481 27.5211 40.3162 27.1731L40.4571 27.1123C40.4571 27.1123 40.0253 26.1852 39.9295 26.0665C39.8964 26.0259 39.8062 26.0462 39.7021 26.0895C39.4959 26.083 38.2926 26.8831 38.2926 26.8831Z" fill="#BC9434" stroke="#BC9434" stroke-width="0.376003" stroke-linejoin="round"/>
<path d="M28.4601 24.2528C28.4601 24.2528 28.1903 24.4213 28.2244 24.5225C28.2585 24.6238 28.4766 24.7914 28.4766 24.7914C28.4766 24.7914 24.9174 27.8599 24.8502 28.0956C24.783 28.3313 22.6315 33.532 22.6315 33.532L24.2813 34.3606L26.4834 29.1258L30.2277 26.7321C30.2277 26.7321 32.9344 30.5822 33.2042 30.5491C33.4739 30.516 39.0116 27.9363 39.0116 27.9363L38.4712 26.6695L33.7925 28.2714L32.3314 24.9939C32.3314 24.9939 32.6849 24.3872 32.4667 23.7971C32.2485 23.2069 31.6078 22.2982 31.6078 22.2982L28.4601 24.2528Z" fill="#BC9434" stroke="#BC9434" stroke-width="0.376003" stroke-linejoin="round"/>
<path d="M30.2268 26.7275C30.2268 26.7275 32.0202 25.654 32.1721 25.5021" stroke="#999999" stroke-width="0.376003" stroke-linejoin="round"/>
<path d="M29.2481 24.2362C29.4551 24.0517 29.6754 23.8828 29.9073 23.7308C30.2609 23.5292 31.0692 23.5623 31.0692 23.5623" stroke="#999999" stroke-width="0.376003" stroke-linejoin="round"/>
<path d="M28.6783 24.7407C28.6783 24.7407 28.798 24.6303 28.9674 24.4802" stroke="#999999" stroke-width="0.376003" stroke-linejoin="round"/>
<path d="M31.4559 23.3772C31.4559 23.3772 30.7829 23.2925 30.259 23.4279" stroke="#999999" stroke-width="0.376003" stroke-linejoin="round"/>
<path d="M30.6475 26.559C30.6475 26.559 32.0451 26.8122 32.4999 26.7781" stroke="#999999" stroke-width="0.376003" stroke-linejoin="round"/>
<path d="M32.3471 27.6408C32.4557 27.673 32.5634 27.6997 32.6684 27.7209" stroke="#999999" stroke-width="0.376003" stroke-linejoin="round"/>
<path d="M30.631 26.8629C31.0837 27.1301 31.5587 27.3577 32.0506 27.5432" stroke="#999999" stroke-width="0.376003" stroke-linejoin="round"/>
<path d="M28.1894 23.9499L28.4592 24.2528L31.6078 22.2992L31.4052 22.0975L28.1894 23.9499Z" fill="#BC9434" stroke="#BC9434" stroke-width="0.376003" stroke-linejoin="round"/>
<path d="M32.7696 20.05L33.0587 20.4395L33.7658 20.1946L33.6212 19.8475L32.7696 20.05Z" fill="white" stroke="#BC9434" stroke-width="0.376003" stroke-linejoin="round"/>
<path d="M25.3299 17.2108C25.3299 17.2108 23.9296 17.231 23.2124 17.2108C22.4952 17.1905 20.4909 16.7909 20.3308 17.0911C20.1706 17.3912 20.5103 18.2115 21.4917 18.5319C22.4731 18.8523 24.6136 19.1524 24.6136 19.1524C24.6136 19.1524 25.4937 20.2572 25.9946 20.9136C26.4954 21.57 27.4151 23.0955 27.4952 23.2355C27.5753 23.3754 27.9353 24.2362 28.4159 24.0558C28.8965 23.8753 31.5175 22.255 31.5175 22.1344C31.5175 22.0138 31.5175 21.8582 31.4384 21.7542C31.3592 21.6501 30.4174 20.4938 30.2572 20.1891C30.097 19.8843 29.5207 18.4085 29.5207 18.4085L30.781 18.1084C30.781 18.1084 32.2624 19.749 32.5422 20.0095C32.8221 20.2701 33.0624 20.1697 33.0624 20.1697C33.0624 20.1697 33.7234 20.0491 33.7428 19.8493C33.7621 19.6496 31.5415 16.2468 31.3214 16.1272C31.1014 16.0075 29.6201 16.5074 29.0198 16.6068C28.4196 16.7062 27.6987 16.7467 26.8581 16.9475C26.355 17.0686 25.8445 17.1566 25.3299 17.2108Z" fill="white" stroke="#BC9434" stroke-width="0.376003" stroke-linejoin="round"/>
<path d="M29.5105 18.4122L27.509 18.972" stroke="#BC9434" stroke-width="0.376003" stroke-linejoin="round"/>
<path d="M28.6092 18.6718L27.9095 19.2325" stroke="#BC9434" stroke-width="0.376003" stroke-linejoin="round"/>
<path d="M22.9067 18.3698L22.6057 18.2318" stroke="#BC9434" stroke-width="0.376003" stroke-linejoin="round"/>
<path d="M23.2059 18.1922L24.6072 19.1524L23.1249 18.4711" stroke="#BC9434" stroke-width="0.376003" stroke-linejoin="round"/>
<path d="M27.9786 21.2819C28.6829 21.4282 29.9119 21.6437 30.9486 21.6207" stroke="#BC9434" stroke-width="0.376003" stroke-linejoin="round"/>
<path d="M27.4013 21.1511C27.4013 21.1511 27.5219 21.1815 27.7272 21.2275" stroke="#BC9434" stroke-width="0.376003" stroke-linejoin="round"/>
<path d="M29.575 21.3297C29.575 21.3297 30.4091 21.5028 30.9661 21.5028" stroke="#BC9434" stroke-width="0.376003" stroke-linejoin="round"/>
<path d="M25.3041 18.2677L25.607 19.2813L26.001 18.2373L25.3041 18.2677Z" fill="#BC9434" stroke="#BC9434" stroke-width="0.376003" stroke-linejoin="round"/>
<path d="M25.3952 17.5035L24.9957 17.9436L25.6843 18.4951L26.0701 17.8064L25.3952 17.5035Z" fill="white" stroke="#BC9434" stroke-width="0.376003" stroke-linejoin="round"/>
<path d="M24.9957 17.9436L25.189 18.7565L25.4643 18.3155L24.9957 17.9436Z" fill="white" stroke="#BC9434" stroke-width="0.376003" stroke-linejoin="round"/>
<path d="M23.7151 14.3908C23.7151 14.3908 23.4389 15.0657 23.4536 15.2443C23.4683 15.4229 23.6055 15.5333 23.5917 15.7405C23.5779 15.9476 23.1507 16.3325 23.2474 16.4291C23.344 16.5258 23.7013 16.6768 23.7013 16.6768C23.7013 16.6768 24.087 17.4759 24.2251 17.5054C24.3632 17.5348 25.1062 17.161 25.1062 17.161L25.6843 18.496L26.8278 16.8029L26.442 16.0452C26.442 16.0452 26.7725 15.1918 26.4558 14.4893C26.1391 13.7869 25.1338 13.7454 24.6514 13.8283C24.1689 13.9112 23.8117 14.1155 23.7151 14.3908Z" fill="white" stroke="#BC9434" stroke-width="0.376003" stroke-miterlimit="10"/>
<path d="M24.6385 14.2408C24.5265 14.217 24.4107 14.2183 24.2992 14.2445C24.1878 14.2708 24.0836 14.3214 23.994 14.3927C23.6506 14.6403 23.3606 14.9156 23.2234 14.6689C23.0863 14.4221 23.5125 14.0078 23.5125 14.0078C23.5125 14.0078 23.1682 13.9112 23.3063 13.5125C23.4444 13.1139 23.9508 13.0301 23.9508 13.1682C23.9508 13.3063 23.9093 13.4159 24.2951 13.2234C24.6808 13.031 24.8871 12.9749 24.9699 13.1958C25.0528 13.4168 25.5481 13.2879 26.1124 13.6083C26.6768 13.9287 26.8149 14.1321 26.6906 14.8484C26.5663 15.5646 26.5396 15.908 26.443 16.0452C26.3463 16.1824 26.002 16.2238 25.851 16.1695C25.7 16.1152 25.7819 15.9624 25.7819 15.9624C25.7819 15.9624 26.1815 15.5628 26.002 15.2461C25.8224 14.9294 25.5619 15.0675 25.479 15.2461C25.3962 15.4247 25.4376 15.5766 25.3133 15.5766C25.189 15.5766 25.0795 15.4845 25.0519 15.2875C25.0242 15.0905 24.9285 14.9193 24.8456 14.888C24.7628 14.8567 24.5565 15.0399 24.5694 14.7232C24.5742 14.5405 24.6422 14.3651 24.7618 14.2269L24.6385 14.2408Z" fill="#BC9434" stroke="#BC9434" stroke-width="0.376003" stroke-miterlimit="10"/>
<path d="M23.716 15.6024C23.7124 15.5147 23.7412 15.4287 23.7969 15.3608C23.8526 15.2929 23.9312 15.2478 24.0179 15.2341" stroke="#BC9434" stroke-width="0.376003" stroke-miterlimit="10"/>
<path d="M24.041 15.7386C24.0677 15.8132 24.0594 15.885 24.0235 15.8979C23.9876 15.9108 23.9379 15.8592 23.9112 15.7837C23.8845 15.7083 23.8928 15.6374 23.9287 15.6245C23.9646 15.6116 24.0152 15.6631 24.041 15.7386Z" fill="#BC9434"/>
<path d="M26.8002 16.3601L25.6024 17.8884L25.8224 18.7013L27.2273 16.7458L26.8002 16.3601Z" fill="white" stroke="#BC9434" stroke-width="0.376003" stroke-linejoin="round"/>
<path d="M25.6061 19.2813C25.6269 19.3504 25.6661 19.4126 25.7194 19.4612C25.7727 19.5098 25.8382 19.5431 25.909 19.5575C26.1511 19.6026 26.5746 19.4212 26.7863 18.8762C26.9981 18.3312 27.4372 16.8333 27.6941 16.4696C27.951 16.106 28.7989 16.0922 29.238 16.1216C29.6772 16.1511 29.9791 15.7285 30.3879 15.5315C30.6273 15.4151 30.8822 15.3336 31.1447 15.2894L31.6602 14.2407L30.5858 14.2104C30.5858 14.2104 29.5262 14.7103 29.2537 15.0279C28.9812 15.3455 28.7851 15.3041 28.2097 15.421C27.6343 15.5379 27.3175 15.7847 27.0901 16.4807C26.8627 17.1767 26.5608 18.9324 26.2275 19.1745C26.1423 19.2451 26.0401 19.2921 25.931 19.3109C25.822 19.3296 25.7099 19.3194 25.6061 19.2813Z" fill="#BC9434" stroke="#BC9434" stroke-width="0.376003" stroke-linejoin="round"/>
<path d="M21.8857 18.1406C22.01 18.2704 22.0284 18.4545 21.9262 18.554C21.8241 18.6534 21.639 18.6285 21.5147 18.4997C21.3904 18.3708 21.372 18.1857 21.4742 18.0863C21.5764 17.9869 21.7605 18.0154 21.8857 18.1406Z" fill="white" stroke="#BC9434" stroke-width="0.376003" stroke-linejoin="round"/>
<path d="M21.7872 18.3919L21.5874 18.1802C21.5874 18.1802 21.1768 17.1104 20.629 16.8241C20.0813 16.5378 19.4221 16.9732 19.2849 17.3838C19.1477 17.7944 19.6338 18.4794 20.1439 18.6912C20.5535 18.8446 20.9738 18.9677 21.4015 19.0594C21.4015 19.0594 21.6381 18.5043 21.7872 18.3919Z" fill="white" stroke="#BC9434" stroke-width="0.376003" stroke-linejoin="round"/>
<path d="M21.0774 18.9646L21.0986 18.9922C21.2781 19.0373 21.4015 19.064 21.4015 19.064C21.4015 19.064 21.6381 18.5043 21.7872 18.392L21.5874 18.1802C21.5874 18.1802 21.0148 18.2796 21.0774 18.9646Z" fill="#BC9434" stroke="#BC9434" stroke-width="0.376003" stroke-linejoin="round"/>
<path d="M23.0439 20.0473C23.1164 20.1515 23.2001 20.2475 23.2934 20.3336C23.3928 20.4091 23.4296 20.4956 23.3054 20.4837C23.1549 20.4801 23.012 20.4172 22.9076 20.3087C22.7824 20.1725 22.6959 20.0602 22.6959 20.0602L23.0439 20.0473Z" fill="white" stroke="#BC9434" stroke-width="0.376003" stroke-linejoin="round"/>
<path d="M23.1065 19.6726C23.1065 19.6726 23.2805 19.9589 23.2188 20.0335C23.1572 20.108 22.5836 20.1329 22.4961 20.108C22.4087 20.0832 22.4713 19.9709 22.4713 19.9709L23.1065 19.6726Z" fill="white" stroke="#BC9434" stroke-width="0.376003" stroke-linejoin="round"/>
<path d="M23.0936 19.3384C23.0936 19.3384 23.2308 19.5501 23.2059 19.6367C23.1811 19.7232 22.5965 19.9856 22.4694 19.9727C22.3424 19.9598 22.358 19.8613 22.358 19.8613L23.0936 19.3384Z" fill="white" stroke="#BC9434" stroke-width="0.376003" stroke-linejoin="round"/>
<path d="M22.8579 19.0889C22.8579 19.0889 23.0817 19.064 23.1065 19.2261C23.1314 19.3881 22.9942 19.4378 22.9077 19.5124C22.8211 19.587 22.4473 19.8613 22.3599 19.8613C22.2724 19.8613 22.1104 19.6118 22.1104 19.6118L22.8579 19.0889Z" fill="white" stroke="#BC9434" stroke-width="0.376003" stroke-linejoin="round"/>
<path d="M21.7872 18.392C21.7872 18.392 22.3967 18.6166 22.683 18.6912C22.9693 18.7658 22.9822 19.0024 22.8579 19.0889C22.7337 19.1754 22.347 19.6496 22.2347 19.6744C22.1223 19.6993 21.9585 19.575 21.9585 19.575C21.9585 19.575 21.6095 19.4001 21.5598 19.2638C21.5295 19.1814 21.4729 19.1112 21.3987 19.064C21.3987 19.064 21.3637 18.554 21.7872 18.392Z" fill="white" stroke="#BC9434" stroke-width="0.376003" stroke-linejoin="round"/>
<path d="M21.9612 19.575C21.9612 19.575 21.8618 19.3384 21.9493 19.2758C22.0367 19.2132 22.173 19.3503 22.173 19.3503C22.1928 19.2782 22.2266 19.2107 22.2724 19.1515" stroke="#BC9434" stroke-width="0.376003" stroke-linejoin="round"/>
<path d="M33.0633 20.4395C33.0963 20.618 33.1169 20.7986 33.125 20.9799C33.1149 21.106 32.8948 21.6308 32.8838 21.6621C32.8727 21.6934 32.9574 21.8195 32.9887 21.861C33.02 21.9024 33.1673 21.8821 33.2824 21.976C33.3975 22.07 33.5338 22.302 33.7022 22.2522C33.8707 22.2025 33.9784 21.976 33.9784 21.976C33.9784 21.976 34.366 21.7459 34.3762 21.6308C34.3815 21.4889 34.3637 21.3472 34.3237 21.211C34.2924 21.1189 33.7713 20.1983 33.7713 20.1983L33.0633 20.4395Z" fill="white" stroke="#BC9434" stroke-width="0.376003" stroke-linejoin="round"/>
<path d="M33.1729 21.5673C33.1729 21.5673 33.3717 21.5986 33.4564 21.9033" stroke="#BC9434" stroke-width="0.376003" stroke-linejoin="round"/>
<path d="M33.2778 21.7247L32.8267 21.9558L33.2465 22.742" stroke="#BC9434" stroke-width="1.12801" stroke-linecap="round" stroke-linejoin="round"/>
<path d="M34.3789 21.3472L34.5041 21.2947L34.924 22.1334" stroke="#BC9434" stroke-width="1.12801" stroke-linejoin="round"/>
<path d="M36.4775 21.2918L31.9653 23.3055C31.7893 23.384 31.7103 23.5904 31.7889 23.7663L32.9996 26.4794C33.0781 26.6553 33.2845 26.7343 33.4604 26.6558L37.9726 24.6421C38.1486 24.5636 38.2276 24.3573 38.1491 24.1813L36.9383 21.4683C36.8598 21.2923 36.6534 21.2133 36.4775 21.2918Z" fill="#BC9434" stroke="#BC9434" stroke-width="0.376003" stroke-linejoin="round"/>
</svg>
